<svg xmlns="http://www.w3.org/2000/svg" viewBox="0 0 186.52011 119.8993">
	<defs>
		<style>
			.cls-1{
				fill:black;
				stroke:black;
				stroke-miterlimit:10;
			}
			.cls-2{
				fill:white;
			}
			.cls-3{
				fill:#99bfc9;
			}
		</style>
	</defs>
	<g>
		<g>
			<path class="cls-1" d="M8.43717,118.24527H1.1127l14.52458-16.356,3.06383-4.0851L24.999,82.485,44.74365,52.52755,63.46707,70.05946l6.29786-12.42553L78.616,44.35734,93.4245,22.91052l16.51065,23.31915,7.48935,11.74468L122.53089,69.719,141.59473,52.868l20.0851,28.766,6.29786,16.17021,17.45948,20.42517-6.62233.016q-7.71644-8.68865-15.43288-17.3773l-6.29788-16.34042L140.74365,60.69776l-8.68084,8.51063,5.617,10.89362,7.82979-8.34042,9.19148,36.93617q4.27761,4.76577,8.55522,9.53155h-7.21277l-33.002-33.53155L113.16919,60.868,93.4245,32.102l-11.234,16.51064,4.766,7.48936,9.1915-12.25532,3.40425,26.55319q21.95047,23.92271,43.901,47.84539l-7.45212.01595q-6.30953-6.90939-12.61905-13.81879l-6.80852,6.63831h-6.63829l9.53191-10.04256L92.91387,71.9318,65.3394,101.719l8.85106,9.36171-7.14893.17021-5.10639-5.44681q-6.132,6.22057-12.26393,12.44113-3.80585-.008-7.6117-.016,13.6825-14.553,27.365-29.106L76.57344,65.2935,73.85,61.54882l-11.40425,24L29.2776,118.24527H22.06483L30.616,91.67648l-2.383-3.40426-4.59574,12.08512Q16.03722,109.3013,8.43717,118.24527Z"/>
			<polygon class="cls-2" points="61.084 75.676 57.51 83.336 43.722 64.102 45.935 60.868 61.084 75.676"/>
		</g>
		<g>
			<path class="cls-3" d="M108.74366,34.31478a20.59134,20.59134,0,0,0,2.89362-4.68085,22.13671,22.13671,0,0,0,1.78723-8.25531,21.00961,21.00961,0,0,0-1.78723-9.53192,20.30092,20.30092,0,0,0-29.3617-8.68085A20.88756,20.88756,0,0,0,74.616,12.35732a22.10718,22.10718,0,0,0-1.617,9.44681,22.79544,22.79544,0,0,0,4.51065,12.51065L91.8075,14.82543a1.484,1.484,0,0,1,1.3617-.68085,1.53176,1.53176,0,0,1,1.10638.68085Q101.50962,24.57012,108.74366,34.31478Z"/>
			<path class="cls-3" d="M123.12663,14.6552a1.34177,1.34177,0,0,0,1.10638-1.27658,1.26473,1.26473,0,0,0-1.27658-1.27661,1.24723,1.24723,0,0,0-1.02127,1.27661A1.35693,1.35693,0,0,0,123.12663,14.6552Z"/>
			<path class="cls-3" d="M63.12663,12.102a1.25616,1.25616,0,0,0-1.19147,1.1915,1.193,1.193,0,1,0,2.383.08511A1.25277,1.25277,0,0,0,63.12663,12.102Z"/>
			<path class="cls-3" d="M64.74366,25.29351a2.16052,2.16052,0,0,0,.1702-4.25531l-5.27658.08508a2.21642,2.21642,0,0,0-.34043,4.34042Z"/>
			<path class="cls-3" d="M126.95927,25.46309a2.16052,2.16052,0,0,0,.17019-4.25531q-2.63827.04252-5.27658.08509a2.21642,2.21642,0,0,0-.34042,4.34042Z"/>
			<path class="cls-3" d="M140.91386,37.54882a2.264,2.264,0,0,0,.08511-4.25531H121.50962a2.28936,2.28936,0,0,0,0,4.42553Z"/>
			<path class="cls-3" d="M65.04042,37.889a2.264,2.264,0,0,0,.08511-4.25531H45.63618a2.28937,2.28937,0,0,0,0,4.42554Q55.3383,37.97407,65.04042,37.889Z"/>
			<animate attributeName="fill-opacity" from="0" to="1" dur="3s" />
		</g>
		<g>	
			<path class="cls-1" d="M78.35637,112.16113l3.46228.0509a3.81058,3.81058,0,0,0,1.52747,3.20771,2.82324,2.82324,0,0,0,1.98314.38494,2.902,2.902,0,0,0,1.84568-1.34924,5.09441,5.09441,0,0,0,.48371-2.46942,26.13836,26.13836,0,0,0,.02864-2.73035l.03758-1.42236q.02546-4.60785.05092-9.21576h3.46226l-.0509,15.27472a6.32692,6.32692,0,0,1-.86557,2.39307,6.6556,6.6556,0,0,1-1.93481,1.98571,6.31222,6.31222,0,0,1-2.69854,1.06922,6.22954,6.22954,0,0,1-3.5641-.56006,7.47917,7.47917,0,0,1-3.71684-5.19342A6.34,6.34,0,0,1,78.35637,112.16113Z"/>
			<path class="cls-1" d="M95.40348,118.13176v-3.51318a5.18651,5.18651,0,0,0,5.19342-2.2912,6.007,6.007,0,0,0,.96739-3.71686,5.598,5.598,0,0,0-1.47656-3.86963,5.53059,5.53059,0,0,0-2.85127-1.42559,6.30292,6.30292,0,0,0-1.88388-.10187l-.05094-3.615a9.369,9.369,0,0,1,4.37877.66186,9.21836,9.21836,0,0,1,3.9205,3.055,8.92641,8.92641,0,0,1,1.62931,4.37872l.007,1.46692a9.23,9.23,0,0,1-.66889,3.421,9.12767,9.12767,0,0,1-3.10586,3.97143,9.08148,9.08148,0,0,1-6,1.57837Z"/>
		</g>
	</g>
</svg>